<svg width="26" height="26" viewBox="0 0 26 26" fill="none" xmlns="http://www.w3.org/2000/svg">
<path d="M25.856 10.641C21.673 19.5 20.312 19.5 19.5 19.5H11.5C8.698 19.5 6.551 17.852 6.03 15.3C6.014 15.222 4.43 7.447 4.025 5.275C3.826 4.21 3.32 3.5 1.5 3.5C0.671 3.5 0 2.829 0 2C0 1.171 0.671 0.5 1.5 0.5C4.52 0.5 6.464 2 6.974 4.724C7.375 6.873 8.954 14.622 8.97 14.701C9.289 16.267 10.692 16.501 11.5 16.501H19.105C19.922 15.623 21.784 12.24 23.143 9.36C23.497 8.611 24.392 8.292 25.14 8.644C25.89 8.997 26.21 9.891 25.856 10.641ZM10.5 20.5C9.119 20.5 8 21.619 8 23C8 24.381 9.119 25.5 10.5 25.5C11.881 25.5 13 24.381 13 23C13 21.619 11.881 20.5 10.5 20.5ZM19.5 20.5C18.119 20.5 17 21.619 17 23C17 24.381 18.119 25.5 19.5 25.5C20.881 25.5 22 24.381 22 23C22 21.619 20.881 20.5 19.5 20.5ZM14.663 12.344C14.763 12.425 14.886 12.464 15.009 12.464C15.132 12.464 15.253 12.425 15.355 12.344C15.455 12.265 18.183 9.604 19.671 7.39C19.786 7.218 19.797 6.998 19.699 6.816C19.604 6.635 19.414 6.521 19.209 6.521H16.983C16.983 6.521 16.766 2.23 16.624 2.031C16.418 1.737 15.567 1.537 15.008 1.537C14.447 1.537 13.581 1.737 13.374 2.031C13.233 2.229 13.046 6.521 13.046 6.521H10.791C10.585 6.521 10.396 6.635 10.299 6.816C10.202 6.998 10.213 7.219 10.327 7.39C11.816 9.605 14.564 12.265 14.663 12.344Z" fill="white"/>
</svg>
