<svg width="15" height="15" viewBox="0 0 15 15" fill="none" xmlns="http://www.w3.org/2000/svg">
<path d="M14.9928 11.8379C15.0246 12.0816 14.9504 12.2934 14.7705 12.4735L12.6586 14.5709C12.5633 14.6768 12.4389 14.7669 12.2854 14.841C12.1319 14.9152 11.9811 14.9628 11.8329 14.984C11.8224 14.984 11.7905 14.9867 11.7376 14.992C11.6847 14.9973 11.6159 15 11.5312 15C11.33 15 11.0045 14.9656 10.5545 14.8967C10.1046 14.8278 9.55416 14.6583 8.90316 14.3882C8.252 14.1181 7.51363 13.7128 6.68792 13.1726C5.86222 12.6325 4.98353 11.8909 4.05193 10.9481C3.31089 10.2171 2.69689 9.51799 2.20992 8.85065C1.72295 8.18325 1.33125 7.56619 1.03484 6.99946C0.738394 6.43272 0.516082 5.91895 0.367874 5.45815C0.219666 4.99734 0.119096 4.6001 0.0661644 4.26641C0.0132329 3.93273 -0.00793973 3.67054 0.00264658 3.47987C0.0132329 3.28919 0.018526 3.18326 0.018526 3.16207C0.0396986 3.01377 0.087337 2.86281 0.161441 2.70921C0.235545 2.55561 0.325529 2.43114 0.431392 2.3358L2.54336 0.222457C2.69157 0.0741524 2.86095 0 3.0515 0C3.18912 0 3.31087 0.0397245 3.41673 0.119174C3.52259 0.198623 3.61258 0.29661 3.68668 0.413135L5.38578 3.63876C5.48106 3.80826 5.50752 3.99364 5.46518 4.19491C5.42283 4.39618 5.33285 4.56567 5.19523 4.70338L4.41713 5.48198C4.39596 5.50317 4.37744 5.5376 4.36156 5.58527C4.34568 5.63294 4.33774 5.67266 4.33774 5.70444C4.38008 5.9269 4.47536 6.18113 4.62357 6.46715C4.7506 6.72139 4.94645 7.03124 5.21111 7.3967C5.47576 7.76217 5.85158 8.18322 6.33855 8.65992C6.81493 9.14726 7.23838 9.52591 7.6089 9.79609C7.97935 10.0661 8.2891 10.2648 8.53788 10.3919C8.78666 10.5191 8.97721 10.5959 9.10951 10.6223L9.30795 10.662C9.32913 10.662 9.36361 10.654 9.4112 10.6382C9.45883 10.6223 9.49324 10.6037 9.51444 10.5825L10.4195 9.66092C10.6102 9.49146 10.8324 9.40671 11.0865 9.40671C11.2665 9.40671 11.4094 9.43847 11.5152 9.50205H11.5311L14.5958 11.3135C14.8182 11.4513 14.9505 11.626 14.9928 11.8379Z" fill="#FAAC3D"/>
</svg>
