<svg width="55" height="55" viewBox="0 0 55 55" fill="none" xmlns="http://www.w3.org/2000/svg">
<path d="M39.8214 0H15.1776C6.80867 0 0 6.809 0 15.1779V39.8218C0 48.191 6.80867 54.9997 15.1776 54.9997H39.8214C48.191 54.9997 54.9997 48.1907 54.9997 39.8218V15.1779C55 6.809 48.191 0 39.8214 0ZM50.1202 39.8218C50.1202 45.5003 45.5003 50.1198 39.8218 50.1198H15.1776C9.49942 50.1202 4.87984 45.5003 4.87984 39.8218V15.1779C4.87984 9.49974 9.49942 4.87984 15.1776 4.87984H39.8214C45.4999 4.87984 50.1198 9.49974 50.1198 15.1779V39.8218H50.1202Z" fill="#FAAC3D"/>
<path d="M27.4997 13.3286C19.6851 13.3286 13.3276 19.6861 13.3276 27.5006C13.3276 35.3149 19.6851 41.672 27.4997 41.672C35.3142 41.672 41.6717 35.3149 41.6717 27.5006C41.6717 19.6861 35.3142 13.3286 27.4997 13.3286ZM27.4997 36.7918C22.3762 36.7918 18.2075 32.6238 18.2075 27.5003C18.2075 22.3765 22.3758 18.2081 27.4997 18.2081C32.6235 18.2081 36.7919 22.3765 36.7919 27.5003C36.7919 32.6238 32.6232 36.7918 27.4997 36.7918Z" fill="#FAAC3D"/>
<path d="M42.266 9.19092C41.3259 9.19092 40.4023 9.57155 39.7383 10.2385C39.0711 10.9021 38.6875 11.826 38.6875 12.7695C38.6875 13.71 39.0714 14.6336 39.7383 15.3005C40.402 15.9641 41.3259 16.348 42.266 16.348C43.2095 16.348 44.1301 15.9641 44.7971 15.3005C45.464 14.6336 45.8446 13.7096 45.8446 12.7695C45.8446 11.826 45.464 10.9021 44.7971 10.2385C44.1334 9.57155 43.2095 9.19092 42.266 9.19092Z" fill="#FAAC3D"/>
</svg>
