<svg width="50" height="50" viewBox="0 0 50 50" fill="none" xmlns="http://www.w3.org/2000/svg">
<path d="M47.6162 29.2866H46.8679V22.5468C46.8679 21.4798 46.3369 20.5351 45.5258 19.9611V19.0434C45.5258 17.7122 44.4429 16.6293 43.1118 16.6293H42.5531L44.6907 13.4926C45.4072 12.4412 45.1347 11.0029 44.0833 10.2863L29.5784 0.401501C29.0691 0.054333 28.4552 -0.073792 27.8494 0.0411495C27.2438 0.155896 26.7191 0.499548 26.372 1.00892L13.8524 19.3803H10.3685L11.209 10.8715C11.2185 10.7756 11.2808 10.6925 11.3677 10.6598C12.4506 10.2515 13.3891 9.489 14.0102 8.51283C14.0591 8.43597 14.1514 8.39203 14.2469 8.4017L19.7113 8.94154C20.1031 8.97953 20.4516 8.69418 20.4903 8.30258C20.529 7.91097 20.2429 7.56224 19.8513 7.52357L14.387 6.98373C13.7527 6.92162 13.1478 7.2139 12.808 7.74789C12.3513 8.46566 11.6613 9.02621 10.8651 9.3264C10.2658 9.55238 9.85425 10.0907 9.79097 10.7314L8.93667 19.3802H8.02817L9.35747 5.92279C9.40532 5.43841 9.83765 5.08256 10.3226 5.13109L21.365 6.22191C21.7566 6.2597 22.1053 5.97455 22.144 5.58295C22.1827 5.19134 21.8966 4.84261 21.505 4.80394L10.4626 3.71312C9.19663 3.58822 8.0645 4.51644 7.9394 5.78265L6.86792 16.6293H5.04321C3.71216 16.6293 2.62915 17.7122 2.62915 19.0434V19.6694C1.54019 20.1707 0.781982 21.2715 0.781982 22.5468V46.8334C0.781982 48.5795 2.20249 50 3.94868 50H43.7013C45.4474 50 46.8679 48.5795 46.8679 46.8334V40.0938H47.6162C48.4994 40.0938 49.2178 39.3753 49.2178 38.4922V30.8882C49.2179 30.005 48.4994 29.2866 47.6162 29.2866ZM43.1118 18.0543C43.6573 18.0542 44.1009 18.498 44.1009 19.0435V19.4065C43.9699 19.3899 43.8368 19.3804 43.7013 19.3804H40.6784L41.582 18.0543H43.1118ZM27.5495 1.81127C27.6823 1.61644 27.883 1.485 28.1146 1.44105C28.17 1.4306 28.2255 1.42533 28.2807 1.42533C28.4562 1.42533 28.6277 1.47787 28.7759 1.57884L43.2809 11.4636C43.6831 11.7377 43.7873 12.2879 43.5133 12.6901L38.9541 19.3801H37.86L40.0953 16.1001C40.4578 15.5682 40.4876 14.8912 40.173 14.3333C39.7548 13.5921 39.5853 12.7194 39.6957 11.8757C39.7777 11.2481 39.5015 10.6354 38.9749 10.2766L31.4556 5.15238C30.929 4.79349 30.2577 4.76058 29.7036 5.06654C28.9589 5.47767 28.0846 5.6391 27.2418 5.52113C26.6168 5.43343 25.983 5.71566 25.6258 6.23959L16.6708 19.3802H15.5767L27.5495 1.81127ZM27.8632 13.91C24.7606 13.91 22.2137 16.3292 22.0062 19.3802H18.395L26.8031 7.04203C26.8032 7.04203 26.8032 7.04203 26.8032 7.04203C26.8509 6.97181 26.9301 6.93002 27.0115 6.93002C27.0223 6.93002 27.0332 6.9308 27.044 6.93226C28.1903 7.09261 29.3792 6.87328 30.3921 6.314C30.4718 6.26986 30.5742 6.27621 30.6531 6.32992L38.1725 11.4542C38.2512 11.5079 38.2945 11.6009 38.2828 11.6911C38.1327 12.8385 38.3633 14.0254 38.932 15.0334C38.9776 15.1144 38.972 15.2181 38.9179 15.2977L36.1359 19.3801H33.7206C33.5128 16.3292 30.9661 13.91 27.8632 13.91ZM32.2917 19.3803H23.4348C23.6389 17.1158 25.5465 15.335 27.8632 15.335C30.18 15.3349 32.0877 17.1158 32.2917 19.3803ZM4.05405 19.0434C4.05405 18.4979 4.4977 18.0541 5.04321 18.0541H6.7272L6.59624 19.3802H4.05405V19.0434ZM2.20688 22.5468C2.20688 21.5865 2.98823 20.8051 3.94868 20.8051H43.7013C44.6618 20.8051 45.443 21.5865 45.443 22.5468V24.5238H2.20688V22.5468ZM45.443 46.8334C45.443 47.7938 44.6618 48.5751 43.7013 48.5751H3.94868C2.98823 48.5751 2.20688 47.7938 2.20688 46.8334V44.8565H6.04888C6.44243 44.8565 6.76128 44.5375 6.76128 44.1441C6.76128 43.7506 6.44233 43.4317 6.04888 43.4317H2.20688V25.9487H45.443V29.2866H38.669H38.6689C36.5345 29.2866 34.6857 30.5307 33.8083 32.3316C33.8053 32.3376 33.802 32.3435 33.799 32.3495C33.7915 32.3649 33.7851 32.3808 33.7779 32.3962C33.6734 32.6182 33.5826 32.848 33.5086 33.0851C33.5084 33.0858 33.5082 33.0864 33.5081 33.087C33.3503 33.5938 33.2653 34.1322 33.2653 34.6902C33.2653 37.6698 35.6893 40.0938 38.6688 40.0938H38.6689H45.4429V43.4317H10.6108C10.2172 43.4317 9.89839 43.7506 9.89839 44.1441C9.89839 44.5375 10.2173 44.8565 10.6108 44.8565H45.443V46.8334ZM47.793 38.4921C47.793 38.5896 47.7137 38.6689 47.6162 38.6689H38.6691C37.1608 38.6689 35.8457 37.8252 35.1712 36.5851C35.1406 36.5287 35.1113 36.4715 35.0832 36.4136C35.0273 36.2977 34.9768 36.1786 34.9322 36.0568C34.7757 35.6304 34.6904 35.1701 34.6904 34.6902C34.6904 34.2103 34.7758 33.7499 34.9322 33.3236C34.9769 33.2018 35.0274 33.0828 35.0832 32.9667C35.1113 32.9088 35.1406 32.8516 35.1712 32.7952C35.8457 31.5551 37.1608 30.7115 38.6691 30.7115H47.6162C47.7136 30.7115 47.793 30.7908 47.793 30.8882V38.4921Z" fill="#FAAC3D"/>
</svg>
