<svg width="50" height="50" viewBox="0 0 50 50" fill="none" xmlns="http://www.w3.org/2000/svg">
<path d="M45.4688 14.2057L43.9801 14.8267L45.1955 17.742H39.8858V19.3549H45.8672L47.8834 24.1936L45.8672 29.0323H33.5664C31.4084 27.0371 28.5342 25.8065 25.3697 25.8065C22.2051 25.8065 19.3309 27.0371 17.1729 29.0323H3.59546V30.6452H15.7148C14.189 32.6694 13.2729 35.1783 13.2729 37.9033C13.2729 44.5734 18.6995 50 25.3697 50C32.0398 50 37.4664 44.5734 37.4664 37.9033C37.4664 35.1783 36.5503 32.6694 35.0245 30.6452H45.1955L43.9809 33.5605L45.4697 34.1815L49.6301 24.1936L45.4688 14.2057ZM35.8535 37.9033C35.8535 43.6839 31.1503 48.3871 25.3697 48.3871C19.589 48.3871 14.8858 43.6839 14.8858 37.9033C14.8858 32.1226 19.589 27.4194 25.3697 27.4194C31.1503 27.4194 35.8535 32.1226 35.8535 37.9033Z" fill="#FAAC3D"/>
<path d="M6.82939 25.4758L21.0399 17.7782L22.827 19.5653L19.5125 19.9798C18.2544 20.1371 17.3052 21.2121 17.3052 22.4798C17.3052 23.8693 18.4358 25 19.8254 25C20.3229 25 20.8262 24.9726 21.3213 24.9169L28.435 24.1266L29.4673 19.996L26.0641 15.2314L30.4318 14.6072L32.0197 20.1613H36.66C37.9939 20.1613 39.0794 19.0758 39.0794 17.7419C39.0794 16.4081 37.9939 15.3226 36.66 15.3226H35.7076L34.9907 11.7379L31.8302 7.94596C31.0399 6.99595 29.8778 6.4516 28.6423 6.4516C28.4495 6.4516 28.2576 6.46854 28.0673 6.49515L24.677 4.79999L17.7657 6.18225C16.5641 6.42337 15.6923 7.48628 15.6923 8.71128C15.6923 10.1331 16.8495 11.2903 18.2713 11.2903H18.7149L18.4866 11.4145L4.06406 20.5242C3.26568 21.0282 2.78906 21.8935 2.78906 22.8379V23.0693C2.78906 24.579 4.01648 25.8064 5.52616 25.8064C5.97939 25.8064 6.43019 25.6919 6.82939 25.4758ZM27.7221 20.3274L27.1423 22.6476L21.1439 23.3137C20.7076 23.3629 20.2641 23.3871 19.8254 23.3871C19.3254 23.3871 18.9181 22.9798 18.9181 22.4798C18.9181 22.0242 19.26 21.6371 19.7125 21.5806L26.2987 20.7572L22.5189 16.9774L24.5455 15.8798L27.7221 20.3274ZM18.2713 9.67741C17.7383 9.67741 17.3052 9.24434 17.3052 8.71128C17.3052 8.25321 17.6318 7.85402 18.0818 7.7637L24.4495 6.49031L26.0479 7.2895L22.7931 9.06531L18.9294 9.66531C18.8794 9.67337 18.831 9.67741 18.781 9.67741H18.2713ZM4.40197 23.0693V22.8379C4.40197 22.4508 4.59793 22.0951 4.92535 21.8879L19.3036 12.804L27.4262 8.37418C27.7979 8.17176 28.2181 8.0645 28.6423 8.0645C29.3987 8.0645 30.1084 8.39757 30.5915 8.97821L33.4907 12.4564L34.3866 16.9355H36.66C37.1052 16.9355 37.4665 17.2968 37.4665 17.7419C37.4665 18.1871 37.1052 18.5484 36.66 18.5484H33.2358L31.5971 12.8121L25.1133 13.7379L6.06084 24.0581C5.89713 24.146 5.71164 24.1935 5.52616 24.1935C4.906 24.1935 4.40197 23.6895 4.40197 23.0693Z" fill="#FAAC3D"/>
<path d="M35.8536 9.67742C38.5222 9.67742 40.6923 7.50726 40.6923 4.83871C40.6923 2.17016 38.5222 0 35.8536 0C33.1851 0 31.0149 2.17016 31.0149 4.83871C31.0149 7.50726 33.1851 9.67742 35.8536 9.67742ZM35.8536 1.6129C37.6326 1.6129 39.0794 3.05968 39.0794 4.83871C39.0794 6.61774 37.6326 8.06452 35.8536 8.06452C34.0746 8.06452 32.6278 6.61774 32.6278 4.83871C32.6278 3.05968 34.0746 1.6129 35.8536 1.6129Z" fill="#FAAC3D"/>
<path d="M1.98253 29.0323H0.369629V30.6452H1.98253V29.0323Z" fill="#FAAC3D"/>
<path d="M1.98253 12.0968H0.369629V13.7097H1.98253V12.0968Z" fill="#FAAC3D"/>
<path d="M11.66 12.0968H3.59546V13.7097H11.66V12.0968Z" fill="#FAAC3D"/>
<path d="M3.59533 8.87097H1.98242V10.4839H3.59533V8.87097Z" fill="#FAAC3D"/>
<path d="M14.0792 8.87097H5.20825V10.4839H14.0792V8.87097Z" fill="#FAAC3D"/>
<path d="M5.20836 5.64514H3.59546V7.25804H5.20836V5.64514Z" fill="#FAAC3D"/>
<path d="M14.8858 5.64514H6.82129V7.25804H14.8858V5.64514Z" fill="#FAAC3D"/>
<path d="M25.3697 29.0323C20.4786 29.0323 16.4988 33.0121 16.4988 37.9033V38.7097H17.3052H18.1117H18.9181V37.0968H18.1593C18.2415 36.3573 18.4359 35.6525 18.723 34.9968L19.3794 35.3758L20.1859 33.9791L19.5359 33.6033C19.9681 33.0178 20.4851 32.5016 21.0697 32.0694L21.4456 32.7194L22.8423 31.9129L22.4633 31.2565C23.1189 30.9686 23.8238 30.775 24.5633 30.6928V31.4516H26.1762V30.6928C26.9157 30.775 27.6206 30.9686 28.2762 31.2565L27.8972 31.9129L29.2939 32.7194L29.6697 32.0694C30.2552 32.5016 30.7714 33.0186 31.2036 33.6033L30.5536 33.9791L31.3601 35.3758L32.0165 34.9968C32.3044 35.6525 32.498 36.3573 32.5802 37.0968H31.8214V38.7097H32.6278H33.4343H34.2407V37.9033C34.2407 33.0121 30.2609 29.0323 25.3697 29.0323Z" fill="#FAAC3D"/>
<path d="M24.7122 41.468L26.0239 42.4048L30.0556 36.7604L28.7439 35.8235L24.7122 41.468Z" fill="#FAAC3D"/>
<path d="M26.1761 44.3549H24.5632V45.9678H26.1761V44.3549Z" fill="#FAAC3D"/>
<path d="M29.402 44.3549H27.7891V45.9678H29.402V44.3549Z" fill="#FAAC3D"/>
<path d="M22.9503 44.3549H21.3374V45.9678H22.9503V44.3549Z" fill="#FAAC3D"/>
</svg>
