<svg width="50" height="50" viewBox="0 0 50 50" fill="none" xmlns="http://www.w3.org/2000/svg">
<g clip-path="url(#clip0)">
<path d="M43.2217 41.6983C43.0008 41.6983 42.7892 41.6108 42.6325 41.4542L39.0892 37.9108C38.7833 37.605 38.7625 37.1167 39.04 36.785C41.8083 33.49 43.3333 29.305 43.3333 25C43.3333 20.695 41.8083 16.51 39.04 13.215C38.7617 12.8842 38.7833 12.395 39.0892 12.0892L42.6325 8.54584C42.7958 8.38251 43.0158 8.29167 43.25 8.30251C43.4808 8.31084 43.6983 8.41417 43.85 8.58834C47.8159 13.1392 50 18.9683 50 25C50 31.0317 47.8159 36.8608 43.85 41.4117C43.6983 41.5858 43.4808 41.6892 43.25 41.6975C43.2408 41.6983 43.2308 41.6983 43.2217 41.6983ZM40.7975 37.2617L43.1675 39.6325C46.505 35.4925 48.3334 30.3308 48.3334 25C48.3334 19.6692 46.505 14.5075 43.1675 10.3675L40.7975 12.7383C43.5125 16.235 45 20.5592 45 25C45 29.4408 43.5125 33.765 40.7975 37.2617Z" fill="#FAAC3D"/>
<path d="M6.77833 41.6983C6.76917 41.6983 6.75917 41.6983 6.75 41.6983C6.51917 41.69 6.30167 41.5867 6.15 41.4125C2.18417 36.8608 0 31.0317 0 25C0 18.9675 2.18417 13.1392 6.15 8.58752C6.30167 8.41418 6.51917 8.31002 6.75 8.30252C6.98417 8.29335 7.20417 8.38335 7.3675 8.54585L10.9108 12.0892C11.2167 12.395 11.2375 12.8834 10.96 13.215C8.19167 16.51 6.66667 20.695 6.66667 25C6.66667 29.305 8.19167 33.49 10.96 36.785C11.2383 37.1158 11.2167 37.605 10.9108 37.9109L7.3675 41.4542C7.21167 41.6109 6.99917 41.6983 6.77833 41.6983ZM6.8325 10.3675C3.495 14.5075 1.66667 19.6684 1.66667 25C1.66667 30.3309 3.495 35.4925 6.8325 39.6325L9.2025 37.2617C6.4875 33.765 5 29.4409 5 25C5 20.5592 6.4875 16.235 9.2025 12.7384L6.8325 10.3675Z" fill="#FAAC3D"/>
<path d="M37.3209 11.1558C37.1309 11.1558 36.9409 11.0908 36.785 10.9608C33.49 8.19167 29.305 6.66667 25 6.66667C20.695 6.66667 16.51 8.19167 13.215 10.96C12.8842 11.2383 12.395 11.2167 12.09 10.9108L8.54671 7.3675C8.38254 7.205 8.29421 6.98083 8.30254 6.75C8.31088 6.51917 8.41421 6.30167 8.58838 6.15C13.1392 2.18417 18.9675 0 25 0C31.0325 0 36.8609 2.18417 41.4125 6.15C41.5867 6.30167 41.69 6.51917 41.6984 6.75C41.7067 6.98083 41.6184 7.20417 41.455 7.3675L37.9117 10.9108C37.7484 11.0733 37.535 11.1558 37.3209 11.1558ZM25 5C29.4409 5 33.765 6.4875 37.2617 9.20333L39.6317 6.8325C35.4925 3.495 30.3317 1.66667 25 1.66667C19.6684 1.66667 14.5075 3.495 10.3675 6.8325L12.7375 9.20333C16.235 6.4875 20.5592 5 25 5Z" fill="#FAAC3D"/>
<path d="M25.0001 50C18.9676 50 13.1393 47.8158 8.58764 43.85C8.41348 43.6983 8.31014 43.4808 8.30181 43.25C8.29348 43.0192 8.38181 42.7958 8.54514 42.6325L12.0885 39.0892C12.3943 38.7842 12.8826 38.7625 13.2135 39.04C16.5101 41.8083 20.6951 43.3333 25.0001 43.3333C29.3051 43.3333 33.4901 41.8083 36.7851 39.04C37.116 38.7625 37.6051 38.7833 37.9101 39.0892L41.4535 42.6325C41.6168 42.7958 41.7051 43.0192 41.6968 43.25C41.6885 43.4808 41.5851 43.6983 41.411 43.85C36.861 47.8158 31.0326 50 25.0001 50ZM10.3676 43.1675C14.5076 46.505 19.6685 48.3333 25.0001 48.3333C30.3318 48.3333 35.4926 46.505 39.6326 43.1675L37.2626 40.7967C33.7651 43.5125 29.441 45 25.0001 45C20.5593 45 16.2351 43.5125 12.7385 40.7967L10.3676 43.1675Z" fill="#FAAC3D"/>
<path d="M25.0002 40C22.0968 40 19.481 38.6359 17.226 35.945C14.736 32.9742 13.3643 29.0334 13.3643 24.8492L13.3335 16.67C13.3327 16.4484 13.4202 16.2359 13.5768 16.0792C13.7327 15.9217 13.9452 15.8334 14.1668 15.8334C21.2902 15.8334 24.1752 11.4117 24.2943 11.2234C24.4477 10.9817 24.7135 10.835 24.9993 10.835H25.0027C25.2885 10.8359 25.5543 10.9825 25.7068 11.2242C25.8335 11.425 28.721 15.8334 35.8335 15.8334C36.0552 15.8334 36.2677 15.9217 36.4235 16.0784C36.5802 16.235 36.6668 16.4475 36.6668 16.6692L36.636 24.8509C36.636 29.0325 35.2643 32.9725 32.7743 35.9442C30.5193 38.6359 27.9035 40 25.0002 40ZM15.0035 17.4817L15.031 24.8459C15.031 28.6425 16.2643 32.2034 18.5027 34.8742C20.4268 37.17 22.6127 38.3334 25.0002 38.3334C27.3877 38.3334 29.5735 37.17 31.4977 34.8742C33.7368 32.2025 34.9693 28.6425 34.9693 24.8492L34.9968 17.4817C29.4318 17.2284 26.2952 14.4942 25.0002 13.0234C23.7052 14.4942 20.5685 17.2284 15.0035 17.4817Z" fill="#FAAC3D"/>
<path d="M24.1676 31.6666C23.9143 31.6666 23.6643 31.5516 23.5001 31.3333L21.0001 28C20.7243 27.6316 20.7985 27.1091 21.1668 26.8333C21.5351 26.5566 22.0576 26.6316 22.3335 27L24.8335 30.3333C25.1093 30.7016 25.0351 31.2241 24.6668 31.5C24.5168 31.6125 24.341 31.6666 24.1676 31.6666Z" fill="#FAAC3D"/>
<path d="M24.1659 31.6667C24.0126 31.6667 23.8584 31.625 23.7192 31.5367C23.3309 31.29 23.2167 30.7742 23.4634 30.3858L29.2967 21.2192C29.5434 20.8317 30.0584 20.7158 30.4476 20.9633C30.8359 21.21 30.9501 21.7258 30.7034 22.1142L24.8701 31.2808C24.7109 31.53 24.4417 31.6667 24.1659 31.6667Z" fill="#FAAC3D"/>
</g>
<defs>
<clipPath id="clip0">
<rect width="50" height="50" fill="white"/>
</clipPath>
</defs>
</svg>
