<svg width="450" height="75" viewBox="0 0 450 75" fill="none" xmlns="http://www.w3.org/2000/svg">
<path d="M21.365 41.6069C14.9909 33.4046 9.46267 21.3441 15.9062 11.5525C16.7143 10.3246 17.6825 9.20237 18.7868 8.23507C21.8636 5.53999 25.8496 4.07561 29.8739 3.40242C39.2398 1.83557 49.074 4.3945 56.9838 9.67795C54.8578 8.69895 52.4794 8.33907 50.1999 7.88483C47.7185 7.39042 45.2029 7.06057 42.6754 6.94176C33.6954 6.51959 25.0955 9.18141 20.3972 17.4104C16.2265 24.715 16.2456 33.8766 20.91 40.9534C21.0557 41.1747 21.2023 41.3974 21.365 41.6069Z" fill="url(#paint0_linear)"/>
<path d="M54.8855 11.2833C49.0667 8.40554 42.7696 7.13505 36.3651 8.64681C28.7622 10.4414 22.8901 15.7212 21.3188 23.6193C20.3624 28.4267 21.1858 33.4175 22.9701 37.9305C23.1154 38.2982 25.8318 44.2523 26.1795 44.0676C26.1803 44.0673 29.0197 42.5595 29.0199 42.5595C28.9877 42.5766 28.9287 42.5079 28.8491 42.3718L31.3138 41.4722L30.934 40.4188L28.3691 41.3551C27.7547 39.9162 26.8642 37.5105 26.3132 35.9493H29.2566V34.8289H25.9283C25.879 34.6785 25.844 34.5658 25.827 34.5014C25.3775 32.8084 25.1027 30.9953 25.0246 29.1517L28.2388 29.4121L28.3282 28.2953L25.0021 28.0259C25.0052 25.947 25.2616 23.8528 25.8046 21.869L28.4662 23.3142L28.9952 22.3281L26.1375 20.7766C26.7871 18.8396 27.7276 17.0364 28.9919 15.4933L31.3697 18.1184L32.193 17.3637L29.7382 14.6535C31.0677 13.2719 32.7003 12.1515 34.6632 11.4025L36.3825 14.9661L37.3844 14.4768L35.7262 11.04C37.6056 10.466 39.6149 10.1974 41.6653 10.1571V12.7784H42.7791V10.1564C44.5747 10.1907 46.3884 10.3861 48.1614 10.6924V12.2377H49.275V10.9005C50.982 11.2418 51.85 11.4744 53.4001 11.9564L54.8855 11.2833Z" fill="#8E8E8E"/>
<path d="M95.2098 9.45061C95.2098 9.45061 94.4171 6.4367 93.1663 5.60533C91.9155 4.77396 90.8252 5.79009 90.8252 5.79009H84.3286C83.353 5.97484 83.043 7.24502 83.043 7.24502L62.2759 8.89244C61.1902 8.9729 60.1059 9.07407 59.024 9.1966C58.4495 9.26166 57.881 9.32266 57.3133 9.44492C56.7307 9.57025 56.1565 9.73498 55.5957 9.93748C55.2756 10.0531 54.9631 10.1848 54.6509 10.3204C54.3603 10.4466 54.0469 10.5413 53.7515 10.6651C53.5135 10.7655 53.2207 10.8497 53.0059 10.9938C52.1534 11.3871 51.3203 11.8232 50.5118 12.3016C49.7556 12.7491 49.0209 13.2332 48.3112 13.7524C47.6476 14.2381 47.006 14.7545 46.3892 15.2993C45.8141 15.8072 45.2606 16.3396 44.7303 16.8947C44.2397 17.4083 43.769 17.9412 43.3196 18.4917C42.9089 18.9947 42.5159 19.5122 42.1415 20.0431C41.8061 20.5189 41.4856 21.0054 41.1811 21.5018C40.916 21.9339 40.6629 22.3736 40.4232 22.8204C40.2233 23.1925 40.0327 23.5698 39.8523 23.9519C39.7126 24.2478 39.5792 24.5468 39.4534 24.8491C39.3688 25.0527 39.2874 25.2578 39.2114 25.4648C39.1764 25.5601 39.1422 25.6555 39.1108 25.752C39.1092 25.757 39.1076 25.762 39.1061 25.7671C39.1061 25.7671 32.5867 41.2867 41.8607 54.4967C51.1349 67.7067 64.5408 63.9193 64.5408 63.9193C64.5408 63.9193 76.4776 61.5174 82.6297 48.3997C88.7818 35.2821 83.548 25.1666 83.548 25.1666L91.1995 25.1051C91.6441 25.4746 92.4088 25.4439 92.4088 25.4439C92.4088 25.4439 94.0158 25.9981 95.5308 20.7325C97.0459 15.4668 95.2098 9.45061 95.2098 9.45061ZM69.66 28.8846L70.4979 30.4435H67.6514L67.043 28.8846H69.66ZM66.7675 28.3188L66.1477 27.1525L68.5351 27.2334C68.5351 27.2334 69.2697 28.3072 69.2697 28.3188C69.2697 28.3304 66.7675 28.3188 66.7675 28.3188ZM70.9225 33.5267C70.9225 33.5267 70.9399 33.7621 70.9418 34.181C71.2764 50.7478 58.5266 52.2505 58.5266 52.2505C70.2548 48.3995 70.9549 37.0314 70.9418 34.181C70.9374 33.9652 70.9314 33.7475 70.9225 33.5267ZM68.3974 47.2448C74.0903 40.0855 71.3816 32.372 71.3816 32.372C68.9483 23.6884 60.822 22.0256 60.822 22.0256L59.5824 21.2403C66.6986 21.7484 69.8664 26.783 69.8664 26.783C76.1103 34.8661 71.611 43.9192 71.611 43.9192C65.6885 56.0207 55.4045 53.0645 55.4045 53.0645C65.1836 52.6489 68.3974 47.2448 68.3974 47.2448ZM67.5906 40.4808C65.3046 49.0087 57.3687 54.2717 49.865 52.2358C42.3616 50.2001 38.1319 41.6363 40.418 33.1084C42.704 24.5804 50.64 19.3174 58.1436 21.3533C65.647 23.389 69.8766 31.9528 67.5906 40.4808ZM47.4212 54.1987C69.3197 64.66 75.7694 46.0237 75.7694 46.0237C79.6711 36.3245 75.1311 24.4736 75.1311 24.4736C77.8858 24.3813 78.4097 25.2396 78.4097 25.2396C82.6103 37.3636 76.8947 48.5871 76.8947 48.5871C65.2567 66.7384 47.2346 54.1095 47.4212 54.1987ZM68.9254 21.8177C69.1321 21.8177 81.4591 20.8015 81.4591 20.8015C81.4591 20.8015 81.3801 22.626 82.6133 24.0116C82.6133 24.0116 81.7116 23.2494 81.0459 22.164L68.9254 21.8177ZM46.911 16.5522C47.5923 15.8125 48.3554 15.1516 49.1624 14.5546C49.9666 13.9597 50.8157 13.4274 51.6906 12.9443C52.5164 12.4882 53.3658 12.0759 54.2307 11.7001C54.8095 11.4485 55.3952 11.2136 55.9864 10.9937C56.5274 10.7926 57.0721 10.578 57.6259 10.4044C58.2105 10.221 58.8066 10.0739 59.4092 9.96386C60.0115 9.85389 60.6148 9.80609 61.2219 9.74727C61.4035 9.72956 61.5852 9.71203 61.767 9.69441C62.2751 9.64507 62.7833 9.59573 63.2915 9.54658C63.8848 9.48901 64.4782 9.43145 65.0716 9.37389C65.7276 9.31028 66.3834 9.24667 67.0394 9.18305C67.735 9.11555 68.4307 9.04805 69.1264 8.98061C69.8392 8.91151 70.552 8.84232 71.2649 8.77322C71.9722 8.70463 72.6794 8.63605 73.3867 8.56745C74.0657 8.50161 74.7446 8.43576 75.4236 8.36992C76.0516 8.30904 76.6797 8.24806 77.3077 8.18719C77.8621 8.13341 78.4164 8.07964 78.9708 8.02586C79.4289 7.98142 79.8869 7.93698 80.345 7.89254C80.6841 7.85967 81.023 7.8268 81.3621 7.79392C81.5593 7.77475 81.7566 7.75567 81.9539 7.7365C81.9956 7.73244 82.0372 7.72839 82.0788 7.72443C81.459 9.24287 81.459 14.1505 81.459 14.1505L69.2007 14.8664C65.5049 15.1435 61.4692 15.4977 61.4692 15.4977C49.969 17.1176 46.5437 21.1482 46.5437 21.1482C50.4002 14.9588 61.7403 13.296 61.7403 13.296L79.921 11.6332L80.2883 9.50853C80.2883 9.50853 68.4891 10.5709 61.0057 11.4946C59.0491 11.7361 57.0921 12.1066 55.2222 12.7452C54.6615 12.9367 54.1031 13.1398 53.5669 13.3937C53.0862 13.6214 52.6677 13.9307 52.2042 14.1921C51.2519 14.7292 50.3358 15.3311 49.4636 15.9918C47.8762 17.1942 46.4341 18.591 45.1835 20.1446C41.1246 25.1865 39.2122 31.6599 38.3218 38.086C38.3551 37.8453 38.3043 37.5636 38.301 37.3194C38.2976 37.0533 38.298 36.7871 38.3022 36.5209C38.3105 35.9887 38.3342 35.4567 38.373 34.9259C38.4503 33.8643 38.5876 32.8071 38.7827 31.7608C39.173 29.6674 39.794 27.6178 40.6277 25.66C41.4611 23.7027 42.5076 21.8367 43.7493 20.1121C44.6724 18.8299 45.6903 17.559 46.911 16.5522ZM38.1574 42.8261C44.4876 62.4713 59.7379 61.8261 63.4126 61.3661C63.6791 61.3276 63.9475 61.2864 64.2195 61.2401C64.2195 61.2401 63.931 61.3013 63.4126 61.3661C41.8613 64.4874 38.1574 42.8261 38.1574 42.8261ZM81.4361 47.0139C75.0086 63.3648 59.7661 63.0876 59.7661 63.0876C73.144 61.3767 78.2719 51.566 78.2719 51.566C87.0176 37.3636 81.0689 25.2125 81.0689 25.2125H82.3544C86.2568 37.6837 81.4361 47.0139 81.4361 47.0139ZM87.9402 16.8986L83.7316 16.9755V16.2981L87.9402 16.1288V16.8986ZM87.9402 15.7746L83.7316 15.9132L83.7929 13.6961L87.9402 13.5729V15.7746ZM88.6786 7.99563C88.6786 7.99563 84.9139 8.24969 84.8795 8.24969C84.8451 8.24969 85.2812 7.45292 85.2812 7.45292L89.0229 7.19886L88.6786 7.99563ZM85.2468 6.96794C85.2468 6.96794 82.5228 10.1088 83.793 23.5498C83.793 23.5498 81.9871 16.9909 82.8442 11.2019C82.8442 11.2019 83.1962 7.02942 84.5275 6.18264L89.723 6.24423C89.723 6.24433 90.0827 6.59842 85.2468 6.96794ZM92.3168 24.1041C90.8848 24.1041 89.723 20.2508 89.723 15.4975C89.723 10.7442 90.8848 6.89092 92.3168 6.89092C93.7498 6.89092 94.9113 10.7442 94.9113 15.4975C94.9113 20.2508 93.7498 24.1041 92.3168 24.1041Z" fill="black"/>
<path d="M90.1821 15.4973C90.1821 18.0062 90.5077 20.2468 91.0181 21.7221C90.8549 20.614 90.7629 19.3555 90.7629 18.0208C90.7629 13.5778 91.7828 9.97615 93.0417 9.97615C93.59 9.97615 94.0932 10.6587 94.4864 11.796C94.1068 9.21567 93.3429 7.45264 92.4619 7.45264C91.203 7.45274 90.1821 11.0543 90.1821 15.4973Z" fill="black"/>
<path d="M41.9856 33.5339C39.9376 41.1741 43.6926 48.8371 50.3724 50.6495C57.0523 52.4619 64.1279 47.7374 66.1759 40.0972C68.224 32.457 64.4691 24.794 57.7892 22.9817C51.1092 21.1691 44.0337 25.8936 41.9856 33.5339ZM41.9407 36.656L46.6465 37.0256C46.5776 38.3881 46.7383 40.9978 46.7383 40.9978L42.1931 40.559C41.8145 39.2887 41.9407 36.656 41.9407 36.656ZM42.4803 42.2565L42.2851 41.2057L46.8073 41.5175C46.8073 41.7946 47.0828 42.6145 47.1057 42.649C47.1286 42.6836 42.4803 42.2565 42.4803 42.2565ZM63.4998 27.7384L64.9689 29.9548L61.4185 35.6206L65.7954 32.295C66.0402 32.9108 66.1474 34.8502 66.1474 34.8502L62.1224 37.0986L66.1474 36.7945L65.8566 39.1309L61.9083 38.8268L65.4587 40.7322L64.6016 42.8886L61.143 40.2087L63.685 44.7353L62.0306 46.6752L59.9493 41.2057L60.1933 48.4304C59.4579 49.1079 57.715 49.385 57.715 49.385L58.5261 40.9978C58.5261 40.9978 54.9909 49.1078 54.8991 49.1078C54.8074 49.1078 52.8178 47.9992 52.6035 47.9685C52.3893 47.9378 57.3783 40.1472 57.3783 40.1472L51.188 45.0432L49.8183 42.6511L56.7968 38.8269L49.849 39.4696L49.5735 36.656L56.8273 37.1603L50.9508 33.8038L51.7466 31.0633L57.5619 35.6514L54.0039 29.1542L55.8481 27.1526L58.7864 34.8503L58.5261 26.7215L61.0207 25.9825L60.1935 34.8503L63.4998 27.7384ZM60.0717 24.4667C57.1946 23.8439 48.0126 27.091 47.737 37.6837C47.4615 48.2764 54.9603 50.4627 54.9603 50.4627C44.6151 47.8145 47.4194 34.2965 47.4194 34.2965C51.4173 22.2565 60.0717 24.4667 60.0717 24.4667Z" fill="black"/>
<path d="M63.4124 61.3657C63.9309 61.301 64.2193 61.24 64.2193 61.24C63.9473 61.2861 63.679 61.3272 63.4124 61.3657Z" fill="black"/>
<path d="M70.9423 34.1809C70.9404 33.762 70.9229 33.5266 70.9229 33.5266C70.9319 33.7475 70.9379 33.9651 70.9423 34.1809Z" fill="black"/>
<path d="M57.766 37.5702C57.5255 38.5733 58.048 39.5606 58.9331 39.7755C59.8183 39.9904 60.7309 39.3514 60.9715 38.3483C61.212 37.3452 60.6895 36.3578 59.8043 36.1429C58.9191 35.928 58.0065 36.5671 57.766 37.5702ZM60.6945 38.281C60.4955 39.1108 59.7406 39.6394 59.0083 39.4617C58.2761 39.284 57.8437 38.4672 58.0428 37.6373C58.2417 36.8075 58.9967 36.2789 59.729 36.4566C60.4612 36.6343 60.8935 37.4512 60.6945 38.281Z" fill="black"/>
<path d="M60.3625 37.7116C60.2434 37.4228 60.0109 37.2005 59.7085 37.127C59.1724 36.9968 58.6196 37.3839 58.4739 37.9914C58.4361 38.1496 58.4296 38.3071 58.4501 38.456C58.358 38.2327 58.3338 37.9696 58.3973 37.7048C58.543 37.0973 59.0957 36.7102 59.6318 36.8404C60.0283 36.9367 60.3044 37.2889 60.3625 37.7116Z" fill="black"/>
<path d="M58.3973 37.705C58.3338 37.9698 58.3581 38.2328 58.4501 38.4562C58.4296 38.3072 58.436 38.1498 58.4739 37.9916C58.6196 37.3841 59.1723 36.997 59.7084 37.1272C60.0108 37.2007 60.2433 37.423 60.3624 37.7117C60.3043 37.2891 60.0282 36.9368 59.6316 36.8407C59.0956 36.7104 58.543 37.0975 58.3973 37.705Z" fill="black"/>
<path d="M27.2205 0.796631C27.2205 0.796631 -8.99774 1.98737 3.07495 34.8526C15.1477 67.7178 52.3127 74.148 52.3127 74.148C52.3127 74.148 77.4049 79.1491 86.8738 60.5732C85.5775 63.1164 82.5739 65.3519 80.2783 66.8482C73.1573 71.4892 64.4791 70.9646 56.562 69.0579C49.1383 67.2699 42.0561 64.1488 35.683 59.9253C28.8282 55.3823 22.793 49.5739 18.047 42.8314C14.2688 37.4636 10.7813 31.55 9.43833 25.0354C8.41212 20.0572 8.91091 14.8323 11.8342 10.5704C15.377 5.40516 21.4197 2.55301 27.2205 0.796631Z" fill="black"/>
<path d="M135.231 28.2361V9.75903H130.004V28.2361H119.875V9.75903H114.648V32.5301H133.64V37.3446H138.477V28.2361H135.231ZM147.173 28.3012V23.0313H157.724V18.9325H147.173V13.9879H159.12V9.75903H141.946V32.5301H159.542V28.3012H147.173ZM179.372 9.75903V18.7373H169.049V9.75903H163.789V32.5301H169.049V23.194H179.372V32.5301H184.632V9.75903H179.372ZM207.694 9.75903H187.988V14.053H195.228V32.5301H200.422V14.053H207.694V9.75903ZM220.834 9.75903H210.997V32.5301H216.256V26.2518H220.834C226.905 26.2518 230.703 23.0964 230.703 18.0217C230.703 12.9145 226.905 9.75903 220.834 9.75903ZM220.542 21.9578H216.256V14.053H220.542C223.756 14.053 225.379 15.5169 225.379 18.0217C225.379 20.494 223.756 21.9578 220.542 21.9578Z" fill="black"/>
<path d="M261.052 9.75901H241.346V14.053H248.586V32.5301H253.78V14.053H261.052V9.75901ZM278.728 9.75901L272.494 21.9903L266.456 9.75901H260.84L269.8 26.4795L269.605 26.7397C268.729 28.106 267.722 28.6915 266.424 28.6915C265.742 28.6915 264.995 28.5289 264.151 28.2686L262.885 32.2699C264.151 32.7903 265.385 33.0506 266.586 33.0506C269.638 33.0506 272.332 31.2939 274.215 27.7807L283.89 9.75901H278.728ZM296.225 9.75901H286.389V32.5301H291.648V26.2518H296.225C302.296 26.2518 306.095 23.0964 306.095 18.0217C306.095 12.9144 302.296 9.75901 296.225 9.75901ZM295.933 21.9578H291.648V14.053H295.933C299.147 14.053 300.771 15.5168 300.771 18.0217C300.771 20.494 299.147 21.9578 295.933 21.9578ZM309.565 32.5301H320.343C326.187 32.5301 329.531 29.8952 329.531 25.3409C329.531 20.9819 326.577 18.6397 321.09 18.6397H314.792V13.9554H327.908V9.75901H309.565V32.5301ZM314.792 28.6265V22.5108H320.051C322.811 22.5108 324.207 23.4867 324.207 25.5036C324.207 27.553 322.746 28.6265 320.051 28.6265H314.792ZM333.533 32.5301H338.5L349.343 17.7289V32.5301H354.538V9.75901H349.603L338.76 24.5927V9.75901H333.533V32.5301ZM375.779 9.75901V18.7373H365.455V9.75901H360.196V32.5301H365.455V23.194H375.779V32.5301H381.038V9.75901H375.779ZM401.575 28.2361L406.802 23.2915C409.983 20.3313 410.6 18.3144 410.6 16.1024C410.6 11.9711 407.224 9.36865 402.159 9.36865C398.069 9.36865 394.887 11.0277 393.134 13.5976L396.965 16.0699C398.069 14.5409 399.725 13.7927 401.672 13.7927C404.075 13.7927 405.309 14.8337 405.309 16.6229C405.309 17.7289 404.951 18.9 402.939 20.8193L394.173 29.1144V32.5301H411.347V28.2361H401.575ZM434.01 23.4542H430.309V19.1927H425.342V23.4542H419.239L429.173 9.75901H423.654L412.94 24.2024V27.7482H425.18V32.5301H430.309V27.7482H434.01V23.4542Z" fill="#FFA100"/>
<path d="M113.757 58.2693V47.0213H114.861V51.9013H116.749L119.789 47.0213H121.053L117.677 52.3333V52.3653L121.277 58.2693H119.981L116.749 52.8933H114.861V58.2693H113.757ZM121.971 54.2053C121.971 53.0213 122.381 52.0293 123.203 51.2293C124.024 50.4293 125.027 50.0293 126.211 50.0293C127.395 50.0293 128.397 50.4293 129.219 51.2293C130.051 52.0293 130.467 53.0213 130.467 54.2053C130.467 55.4106 130.051 56.424 129.219 57.2453C128.397 58.056 127.395 58.4613 126.211 58.4613C125.027 58.4613 124.024 58.056 123.203 57.2453C122.381 56.424 121.971 55.4106 121.971 54.2053ZM123.091 54.2053C123.091 55.144 123.389 55.9226 123.987 56.5413C124.595 57.16 125.336 57.4693 126.211 57.4693C127.085 57.4693 127.827 57.16 128.435 56.5413C129.043 55.9226 129.347 55.144 129.347 54.2053C129.347 53.2986 129.043 52.5413 128.435 51.9333C127.827 51.3146 127.085 51.0053 126.211 51.0053C125.336 51.0053 124.595 51.3146 123.987 51.9333C123.389 52.5413 123.091 53.2986 123.091 54.2053ZM132.195 58.2693L132.851 50.2213H134.003L136.419 55.1813L136.915 56.3173H136.947C137.118 55.9013 137.283 55.5226 137.443 55.1813L139.875 50.2213H141.011L141.683 58.2693H140.611L140.211 53.0693V51.6773H140.179C140.062 52.0186 139.891 52.408 139.667 52.8453L137.427 57.3413H136.435L134.211 52.8773L133.683 51.6773H133.651C133.672 52.3173 133.672 52.7813 133.651 53.0693L133.251 58.2693H132.195ZM143.968 58.2693V50.2213H150.704V58.2693H149.616V51.1813H145.056V58.2693H143.968ZM152.32 58.3333V57.3573C152.981 57.2506 153.467 56.8186 153.776 56.0613C154.085 55.2933 154.24 54.1573 154.24 52.6533V50.2213H159.168V58.2693H158.08V51.1653H155.296V52.6533C155.296 54.552 155.056 55.9546 154.576 56.8613C154.107 57.7573 153.355 58.248 152.32 58.3333ZM161.236 54.2533C161.236 52.9733 161.615 51.9493 162.372 51.1813C163.14 50.4133 164.09 50.0293 165.22 50.0293C166.287 50.0293 167.114 50.3866 167.7 51.1013C168.287 51.8053 168.58 52.6853 168.58 53.7413C168.58 53.8693 168.57 54.0506 168.548 54.2853H162.372C162.394 55.2773 162.703 56.056 163.3 56.6213C163.898 57.1866 164.628 57.4693 165.492 57.4693C166.42 57.4693 167.236 57.1493 167.94 56.5093L168.436 57.3413C168.063 57.6826 167.604 57.9546 167.06 58.1573C166.527 58.36 165.994 58.4613 165.46 58.4613C164.255 58.4613 163.247 58.0666 162.436 57.2773C161.636 56.488 161.236 55.48 161.236 54.2533ZM162.42 53.4213H167.476C167.444 52.6213 167.215 52.008 166.788 51.5813C166.362 51.144 165.828 50.9253 165.188 50.9253C164.495 50.9253 163.892 51.144 163.38 51.5813C162.868 52.0186 162.548 52.632 162.42 53.4213ZM170.624 58.2693V50.2213H171.712V53.6293H172.992L175.408 50.2213H176.688L173.888 54.0453V54.0773L177.008 58.2693H175.68L173.008 54.5893H171.712V58.2693H170.624ZM180.546 58.2693V51.1813H177.618V50.2213H184.578V51.1813H181.634V58.2693H180.546ZM185.673 60.2853C185.972 60.5306 186.292 60.6533 186.633 60.6533C187.273 60.6533 187.785 60.216 188.169 59.3413L188.649 58.1893L185.305 50.2213H186.505L188.857 56.0933L189.161 56.9413H189.193C189.268 56.6426 189.358 56.36 189.465 56.0933L191.785 50.2213H192.953L188.985 59.9493C188.772 60.472 188.462 60.8826 188.057 61.1813C187.662 61.48 187.204 61.6293 186.681 61.6293C186.436 61.6293 186.19 61.5866 185.945 61.5013C185.71 61.4266 185.54 61.352 185.433 61.2773L185.257 61.1493L185.673 60.2853ZM194.671 58.2693V50.2213H195.759V53.7733H197.359C197.466 52.696 197.903 51.8053 198.671 51.1013C199.439 50.3866 200.351 50.0293 201.407 50.0293C202.548 50.0293 203.519 50.4293 204.319 51.2293C205.119 52.0293 205.519 53.0213 205.519 54.2053C205.519 55.4106 205.119 56.424 204.319 57.2453C203.53 58.056 202.564 58.4613 201.423 58.4613C200.367 58.4613 199.455 58.1093 198.687 57.4053C197.93 56.6906 197.492 55.7946 197.375 54.7173H195.759V58.2693H194.671ZM198.447 54.2053C198.447 55.144 198.735 55.9226 199.311 56.5413C199.887 57.16 200.591 57.4693 201.423 57.4693C202.244 57.4693 202.943 57.16 203.519 56.5413C204.095 55.9226 204.383 55.144 204.383 54.2053C204.383 53.2986 204.095 52.5413 203.519 51.9333C202.943 51.3146 202.244 51.0053 201.423 51.0053C200.591 51.0053 199.887 51.3146 199.311 51.9333C198.735 52.5413 198.447 53.2986 198.447 54.2053ZM207.546 58.2693V50.2213H208.602V57.3093H212.058V50.2213H213.114V57.3093H216.554V50.2213H217.61V57.3093H218.746V60.1893H217.722V58.2693H207.546ZM220.515 58.2693V50.2213H221.571V55.5013C221.571 56.2373 221.555 56.6373 221.523 56.7013H221.555C221.597 56.6266 221.875 56.2266 222.387 55.5013L226.339 50.2213H227.379V58.2693H226.307V52.9733C226.307 52.8346 226.307 52.6746 226.307 52.4933C226.317 52.312 226.328 52.1573 226.339 52.0293C226.349 51.8906 226.355 51.816 226.355 51.8053H226.323C226.323 51.8266 226.275 51.9013 226.179 52.0293C226.093 52.1573 225.976 52.3173 225.827 52.5093C225.688 52.7013 225.581 52.856 225.507 52.9733L221.555 58.2693H220.515ZM229.424 54.2533C229.424 52.9733 229.802 51.9493 230.56 51.1813C231.328 50.4133 232.277 50.0293 233.408 50.0293C234.474 50.0293 235.301 50.3866 235.888 51.1013C236.474 51.8053 236.768 52.6853 236.768 53.7413C236.768 53.8693 236.757 54.0506 236.736 54.2853H230.56C230.581 55.2773 230.89 56.056 231.488 56.6213C232.085 57.1866 232.816 57.4693 233.68 57.4693C234.608 57.4693 235.424 57.1493 236.128 56.5093L236.624 57.3413C236.25 57.6826 235.792 57.9546 235.248 58.1573C234.714 58.36 234.181 58.4613 233.648 58.4613C232.442 58.4613 231.434 58.0666 230.624 57.2773C229.824 56.488 229.424 55.48 229.424 54.2533ZM230.608 53.4213H235.664C235.632 52.6213 235.402 52.008 234.976 51.5813C234.549 51.144 234.016 50.9253 233.376 50.9253C232.682 50.9253 232.08 51.144 231.568 51.5813C231.056 52.0186 230.736 52.632 230.608 53.4213ZM242.812 58.2693V50.2213H243.868V55.5013C243.868 56.2373 243.852 56.6373 243.82 56.7013H243.852C243.894 56.6266 244.172 56.2266 244.684 55.5013L248.636 50.2213H249.676V58.2693H248.604V52.9733C248.604 52.8346 248.604 52.6746 248.604 52.4933C248.614 52.312 248.625 52.1573 248.636 52.0293C248.646 51.8906 248.652 51.816 248.652 51.8053H248.62C248.62 51.8266 248.572 51.9013 248.476 52.0293C248.39 52.1573 248.273 52.3173 248.124 52.5093C247.985 52.7013 247.878 52.856 247.804 52.9733L243.852 58.2693H242.812ZM255.449 57.2933L256.025 56.5413C256.654 57.2026 257.374 57.5333 258.185 57.5333C258.718 57.5333 259.171 57.4 259.545 57.1333C259.929 56.856 260.121 56.4666 260.121 55.9653C260.121 55.016 259.47 54.5413 258.169 54.5413H257.193V53.6773H258.041C258.606 53.6773 259.043 53.5653 259.353 53.3413C259.673 53.1066 259.833 52.7653 259.833 52.3173C259.833 51.8693 259.683 51.5333 259.385 51.3093C259.086 51.0746 258.681 50.9573 258.169 50.9573C257.465 50.9573 256.809 51.1973 256.201 51.6773L255.721 50.9093C256.425 50.3226 257.294 50.0293 258.329 50.0293C259.107 50.0293 259.737 50.216 260.217 50.5893C260.707 50.9626 260.953 51.496 260.953 52.1893C260.953 53.096 260.542 53.7093 259.721 54.0293V54.0613C260.179 54.1786 260.547 54.4026 260.825 54.7333C261.102 55.064 261.241 55.4853 261.241 55.9973C261.241 56.776 260.947 57.384 260.361 57.8213C259.785 58.248 259.081 58.4613 258.249 58.4613C257.182 58.4613 256.249 58.072 255.449 57.2933ZM262.592 56.1093C262.592 54.2426 264.224 53.3093 267.488 53.3093H267.968V53.0853C267.968 51.6986 267.307 51.0053 265.984 51.0053C265.163 51.0053 264.4 51.2613 263.696 51.7733L263.2 50.9413C263.52 50.664 263.941 50.4453 264.464 50.2853C264.987 50.1146 265.515 50.0293 266.048 50.0293C267.019 50.0293 267.76 50.296 268.272 50.8293C268.795 51.352 269.056 52.1146 269.056 53.1173V58.2693H268.016V57.3253L268.064 56.6533H268.032C267.808 57.1653 267.451 57.5973 266.96 57.9493C266.48 58.2906 265.931 58.4613 265.312 58.4613C264.576 58.4613 263.936 58.2533 263.392 57.8373C262.859 57.4213 262.592 56.8453 262.592 56.1093ZM263.696 56.0133C263.696 56.4186 263.856 56.776 264.176 57.0853C264.496 57.3946 264.939 57.5493 265.504 57.5493C266.24 57.5493 266.832 57.24 267.28 56.6213C267.739 56.0026 267.968 55.3093 267.968 54.5413V54.1733H267.504C267.163 54.1733 266.864 54.1786 266.608 54.1893C266.363 54.2 266.037 54.2426 265.632 54.3173C265.237 54.3813 264.912 54.472 264.656 54.5893C264.4 54.7066 264.176 54.888 263.984 55.1333C263.792 55.3786 263.696 55.672 263.696 56.0133ZM271.562 58.2693V50.2213H278.298V58.2693H277.21V51.1813H272.65V58.2693H271.562ZM283.05 55.3253C282.143 55.3253 281.466 55.1066 281.018 54.6693C280.57 54.2213 280.346 53.592 280.346 52.7813V50.2213H281.418V52.6693C281.418 53.1813 281.54 53.592 281.786 53.9013C282.042 54.2 282.527 54.3493 283.242 54.3493C284.01 54.3493 284.676 54.1306 285.242 53.6933V50.2213H286.33V58.2693H285.242V55.2133L285.274 54.7013H285.242C284.57 55.1173 283.839 55.3253 283.05 55.3253ZM288.217 56.1093C288.217 54.2426 289.849 53.3093 293.113 53.3093H293.593V53.0853C293.593 51.6986 292.932 51.0053 291.609 51.0053C290.788 51.0053 290.025 51.2613 289.321 51.7733L288.825 50.9413C289.145 50.664 289.566 50.4453 290.089 50.2853C290.612 50.1146 291.14 50.0293 291.673 50.0293C292.644 50.0293 293.385 50.296 293.897 50.8293C294.42 51.352 294.681 52.1146 294.681 53.1173V58.2693H293.641V57.3253L293.689 56.6533H293.657C293.433 57.1653 293.076 57.5973 292.585 57.9493C292.105 58.2906 291.556 58.4613 290.937 58.4613C290.201 58.4613 289.561 58.2533 289.017 57.8373C288.484 57.4213 288.217 56.8453 288.217 56.1093ZM289.321 56.0133C289.321 56.4186 289.481 56.776 289.801 57.0853C290.121 57.3946 290.564 57.5493 291.129 57.5493C291.865 57.5493 292.457 57.24 292.905 56.6213C293.364 56.0026 293.593 55.3093 293.593 54.5413V54.1733H293.129C292.788 54.1733 292.489 54.1786 292.233 54.1893C291.988 54.2 291.662 54.2426 291.257 54.3173C290.862 54.3813 290.537 54.472 290.281 54.5893C290.025 54.7066 289.801 54.888 289.609 55.1333C289.417 55.3786 289.321 55.672 289.321 56.0133ZM296.643 54.2533C296.643 53.0266 297.048 52.0186 297.859 51.2293C298.669 50.4293 299.672 50.0293 300.867 50.0293C301.421 50.0293 301.965 50.1306 302.499 50.3333C303.032 50.5253 303.469 50.808 303.811 51.1813L303.251 51.9973C302.963 51.6986 302.605 51.4586 302.179 51.2773C301.763 51.096 301.336 51.0053 300.899 51.0053C300.003 51.0053 299.256 51.3093 298.659 51.9173C298.061 52.5253 297.763 53.304 297.763 54.2533C297.763 55.192 298.061 55.9653 298.659 56.5733C299.267 57.1706 300.024 57.4693 300.931 57.4693C301.4 57.4693 301.869 57.3733 302.339 57.1813C302.808 56.9786 303.197 56.7066 303.507 56.3653L304.003 57.1813C303.651 57.576 303.192 57.8906 302.627 58.1253C302.072 58.3493 301.485 58.4613 300.867 58.4613C299.661 58.4613 298.653 58.072 297.843 57.2933C297.043 56.504 296.643 55.4906 296.643 54.2533ZM307.858 58.2693V51.1813H304.93V50.2213H311.89V51.1813H308.946V58.2693H307.858ZM313.562 58.2693V50.2213H314.618V55.5013C314.618 56.2373 314.602 56.6373 314.57 56.7013H314.602C314.644 56.6266 314.922 56.2266 315.434 55.5013L319.386 50.2213H320.426V58.2693H319.354V52.9733C319.354 52.8346 319.354 52.6746 319.354 52.4933C319.364 52.312 319.375 52.1573 319.386 52.0293C319.396 51.8906 319.402 51.816 319.402 51.8053H319.37C319.37 51.8266 319.322 51.9013 319.226 52.0293C319.14 52.1573 319.023 52.3173 318.874 52.5093C318.735 52.7013 318.628 52.856 318.554 52.9733L314.602 58.2693H313.562ZM328.055 57.3413H332.183V51.1493H329.367V51.6293C329.367 54.1146 328.929 56.0186 328.055 57.3413ZM325.895 57.3413H326.887C327.825 56.1146 328.295 54.1786 328.295 51.5333V50.2213H333.271V57.3413H334.407V60.1893H333.367V58.2693H326.935V60.1893H325.895V57.3413ZM335.195 58.3333V57.3573C335.856 57.2506 336.342 56.8186 336.651 56.0613C336.96 55.2933 337.115 54.1573 337.115 52.6533V50.2213H342.043V58.2693H340.955V51.1653H338.171V52.6533C338.171 54.552 337.931 55.9546 337.451 56.8613C336.982 57.7573 336.23 58.248 335.195 58.3333ZM343.839 58.2693L345.775 55.5013L346.143 55.0213V54.9893C345.631 54.8826 345.194 54.6266 344.831 54.2213C344.469 53.8053 344.287 53.288 344.287 52.6693C344.287 51.88 344.543 51.2773 345.055 50.8613C345.578 50.4346 346.271 50.2213 347.135 50.2213H349.967V58.2693H348.879V55.1813H347.215L345.103 58.2693H343.839ZM347.263 54.3333H348.879V51.0533H347.343C346.053 51.0533 345.407 51.592 345.407 52.6693C345.407 53.192 345.578 53.6026 345.919 53.9013C346.271 54.1893 346.719 54.3333 347.263 54.3333ZM358.577 58.2693V51.1813H355.649V50.2213H362.609V51.1813H359.665V58.2693H358.577ZM363.704 60.2853C364.003 60.5306 364.323 60.6533 364.664 60.6533C365.304 60.6533 365.816 60.216 366.2 59.3413L366.68 58.1893L363.336 50.2213H364.536L366.888 56.0933L367.192 56.9413H367.224C367.299 56.6426 367.39 56.36 367.496 56.0933L369.816 50.2213H370.984L367.016 59.9493C366.803 60.472 366.494 60.8826 366.088 61.1813C365.694 61.48 365.235 61.6293 364.712 61.6293C364.467 61.6293 364.222 61.5866 363.976 61.5013C363.742 61.4266 363.571 61.352 363.464 61.2773L363.288 61.1493L363.704 60.2853ZM372.702 61.4693V50.2213H373.742V51.0693L373.694 51.6933H373.726C373.972 51.1706 374.34 50.7653 374.83 50.4773C375.332 50.1786 375.897 50.0293 376.526 50.0293C377.604 50.0293 378.457 50.4186 379.086 51.1973C379.716 51.9653 380.03 52.9786 380.03 54.2373C380.03 55.5066 379.694 56.5306 379.022 57.3093C378.35 58.0773 377.486 58.4613 376.43 58.4613C375.865 58.4613 375.348 58.3226 374.878 58.0453C374.409 57.7573 374.041 57.3626 373.774 56.8613H373.742C373.774 57.0533 373.79 57.288 373.79 57.5653V61.4693H372.702ZM373.758 54.2693C373.758 55.1333 373.988 55.8853 374.446 56.5253C374.916 57.1653 375.54 57.4853 376.318 57.4853C377.054 57.4853 377.673 57.1973 378.174 56.6213C378.676 56.0346 378.926 55.2453 378.926 54.2533C378.926 53.2826 378.686 52.504 378.206 51.9173C377.737 51.32 377.124 51.0213 376.366 51.0213C375.63 51.0213 375.012 51.2933 374.51 51.8373C374.009 52.3813 373.758 53.192 373.758 54.2693ZM381.772 53.7093C381.772 52.2586 382.007 51.0906 382.476 50.2053C382.945 49.32 383.815 48.5893 385.084 48.0133L388.06 46.6213L388.46 47.5333L385.356 48.9573C384.471 49.3733 383.831 49.8746 383.436 50.4613C383.052 51.048 382.833 51.784 382.78 52.6693H382.812C383.441 51.5386 384.444 50.9733 385.82 50.9733C386.823 50.9733 387.639 51.3093 388.268 51.9813C388.908 52.6426 389.228 53.544 389.228 54.6853C389.228 55.7946 388.887 56.7013 388.204 57.4053C387.521 58.1093 386.641 58.4613 385.564 58.4613C384.295 58.4613 383.345 58.0293 382.716 57.1653C382.087 56.3013 381.772 55.1493 381.772 53.7093ZM382.956 54.6693C382.956 55.5333 383.201 56.2213 383.692 56.7333C384.183 57.2453 384.796 57.5013 385.532 57.5013C386.268 57.5013 386.881 57.2506 387.372 56.7493C387.863 56.2373 388.108 55.5546 388.108 54.7013C388.108 53.8373 387.863 53.1546 387.372 52.6533C386.892 52.1413 386.3 51.8853 385.596 51.8853C384.817 51.8853 384.183 52.152 383.692 52.6853C383.201 53.2186 382.956 53.88 382.956 54.6693ZM391.343 58.2693V50.2213H392.399V55.5013C392.399 56.2373 392.383 56.6373 392.351 56.7013H392.383C392.425 56.6266 392.703 56.2266 393.215 55.5013L397.167 50.2213H398.207V58.2693H397.135V52.9733C397.135 52.8346 397.135 52.6746 397.135 52.4933C397.145 52.312 397.156 52.1573 397.167 52.0293C397.177 51.8906 397.183 51.816 397.183 51.8053H397.151C397.151 51.8266 397.103 51.9013 397.007 52.0293C396.921 52.1573 396.804 52.3173 396.655 52.5093C396.516 52.7013 396.409 52.856 396.335 52.9733L392.383 58.2693H391.343ZM400.796 58.2693V50.2213H401.884V53.6613H406.588V50.2213H407.676V58.2693H406.588V54.6213H401.884V58.2693H400.796Z" fill="black"/>
<defs>
<linearGradient id="paint0_linear" x1="37.6505" y1="6.66829" x2="25.6152" y2="38.9919" gradientUnits="userSpaceOnUse">
<stop stop-color="#FFA100"/>
<stop offset="1" stop-color="#B65D00"/>
</linearGradient>
</defs>
</svg>
