<svg width="11" height="15" viewBox="0 0 11 15" fill="none" xmlns="http://www.w3.org/2000/svg">
<path d="M5.50006 0C2.5046 0 0.067627 2.43697 0.067627 5.4324C0.067627 9.14982 4.92912 14.6072 5.1361 14.8377C5.33052 15.0543 5.66995 15.0539 5.86401 14.8377C6.071 14.6072 10.9325 9.14982 10.9325 5.4324C10.9324 2.43697 8.49549 0 5.50006 0ZM5.50006 8.1656C3.99297 8.1656 2.76689 6.93949 2.76689 5.4324C2.76689 3.92531 3.993 2.69924 5.50006 2.69924C7.00712 2.69924 8.23319 3.92534 8.23319 5.43243C8.23319 6.93952 7.00712 8.1656 5.50006 8.1656Z" fill="#FAAC3D"/>
</svg>
