<svg width="24" height="30" viewBox="0 0 24 30" fill="none" xmlns="http://www.w3.org/2000/svg">
    <path d="M12.0002 30C9.09684 30 6.481 28.6359 4.226 25.945C1.736 22.9742 0.364336 19.0334 0.364336 14.8492L0.333502 6.67002C0.332669 6.44836 0.420168 6.23586 0.576835 6.07919C0.732668 5.92169 0.945169 5.83336 1.16684 5.83336C8.29017 5.83336 11.1752 1.41169 11.2943 1.22336C11.4477 0.981689 11.7135 0.835022 11.9993 0.835022H12.0027C12.2885 0.835855 12.5543 0.982522 12.7068 1.22419C12.8335 1.42502 15.721 5.83336 22.8335 5.83336C23.0552 5.83336 23.2677 5.92169 23.4235 6.07836C23.5802 6.23502 23.6668 6.44752 23.6668 6.66919L23.636 14.8509C23.636 19.0325 22.2643 22.9725 19.7743 25.9442C17.5193 28.6359 14.9035 30 12.0002 30ZM2.0035 7.48169L2.031 14.8459C2.031 18.6425 3.26433 22.2034 5.50267 24.8742C7.42683 27.17 9.61267 28.3334 12.0002 28.3334C14.3877 28.3334 16.5735 27.17 18.4977 24.8742C20.7368 22.2025 21.9693 18.6425 21.9693 14.8492L21.9968 7.48169C16.4318 7.22836 13.2952 4.49419 12.0002 3.02336C10.7052 4.49419 7.5685 7.22836 2.0035 7.48169Z" fill="#FAAC3D"/>
    <path d="M11.1676 21.6666C10.9143 21.6666 10.6643 21.5516 10.5001 21.3333L8.00012 18C7.72429 17.6316 7.79845 17.1091 8.16679 16.8333C8.53512 16.5566 9.05762 16.6316 9.33345 17L11.8335 20.3333C12.1093 20.7016 12.0351 21.2241 11.6668 21.5C11.5168 21.6125 11.341 21.6666 11.1676 21.6666Z" fill="#FAAC3D"/>
    <path d="M11.1659 21.6667C11.0126 21.6667 10.8584 21.625 10.7192 21.5367C10.3309 21.29 10.2167 20.7742 10.4634 20.3858L16.2967 11.2192C16.5434 10.8317 17.0584 10.7158 17.4476 10.9633C17.8359 11.21 17.9501 11.7258 17.7034 12.1142L11.8701 21.2808C11.7109 21.53 11.4417 21.6667 11.1659 21.6667Z" fill="#FAAC3D"/>
</svg>