<svg width="18" height="18" viewBox="0 0 18 18" fill="none" xmlns="http://www.w3.org/2000/svg">
<path d="M17.6096 8.19258C17.9639 7.84728 18.089 7.34051 17.9361 6.86943C17.7829 6.39834 17.3839 6.06206 16.8938 5.9907L12.5354 5.35742C12.3498 5.33038 12.1894 5.21396 12.1065 5.04564L10.158 1.09674C9.93921 0.65305 9.49516 0.377319 9.00029 0.377319C8.50577 0.377319 8.06172 0.65305 7.84294 1.09674L5.89408 5.046C5.81118 5.21432 5.65043 5.33074 5.4648 5.35778L1.10645 5.99106C0.616625 6.06206 0.217266 6.3987 0.0640822 6.86979C-0.0887412 7.34087 0.0363289 7.84764 0.390634 8.19294L3.54406 11.2667C3.6785 11.3979 3.74013 11.5868 3.70842 11.7713L2.96448 16.1116C2.89852 16.4937 2.99872 16.8653 3.24598 17.1583C3.6302 17.615 4.30097 17.7541 4.83729 17.4723L8.73501 15.4229C8.89792 15.3374 9.10301 15.3382 9.26556 15.4229L13.1636 17.4723C13.3532 17.5721 13.5554 17.6226 13.7641 17.6226C14.1451 17.6226 14.5063 17.4532 14.7546 17.1583C15.0022 16.8653 15.102 16.493 15.0361 16.1116L14.2918 11.7713C14.2601 11.5864 14.3217 11.3979 14.4562 11.2667L17.6096 8.19258Z" fill="#64666B"/>
</svg>
